<svg width="24" height="24" viewBox="0 0 24 24" fill="none" xmlns="http://www.w3.org/2000/svg">
<path fill-rule="evenodd" clip-rule="evenodd" d="M12.0312 0C11.5304 0 11.1566 0.272794 10.9445 0.465027C10.7112 0.676487 10.5057 0.944105 10.3282 1.21165C9.96988 1.7518 9.6184 2.45751 9.29988 3.17601C8.65798 4.62394 8.07839 6.28879 7.77546 7.19764C7.77101 7.21098 7.75793 7.22146 7.74208 7.22199C6.79298 7.25408 5.05356 7.3392 3.5375 7.56154C2.78851 7.67138 2.03421 7.82283 1.44527 8.04213C1.15528 8.15011 0.839035 8.29823 0.57818 8.51312C0.314173 8.73061 0 9.11177 0 9.66144C0 10.0416 0.143828 10.3781 0.274021 10.6183C0.41357 10.8757 0.597996 11.1308 0.795265 11.3717C1.19066 11.8545 1.71348 12.3713 2.25402 12.8629C3.34026 13.8507 4.59819 14.8262 5.31389 15.3655C5.32518 15.374 5.33044 15.3882 5.32576 15.4035C5.05091 16.3059 4.57355 17.9569 4.26989 19.4883C4.11906 20.2489 4.00259 21.0211 3.9851 21.6732C3.9764 21.9976 3.99068 22.3334 4.05554 22.6413C4.11596 22.928 4.2487 23.3306 4.58844 23.6308C4.96974 23.9678 5.42866 24.0125 5.74642 23.9928C6.07135 23.9727 6.39678 23.8787 6.68679 23.7692C7.27244 23.5482 7.93353 23.1783 8.56741 22.779C9.84797 21.9723 11.2039 20.9252 11.975 20.3095C11.989 20.2983 12.0095 20.298 12.0241 20.3097C12.7951 20.9259 14.1522 21.9737 15.4423 22.781C16.0813 23.1808 16.7492 23.5507 17.3449 23.7714C17.6407 23.881 17.9694 23.9734 18.2973 23.993C18.6192 24.0122 19.0654 23.9671 19.4462 23.6544C19.803 23.3615 19.9512 22.9592 20.02 22.6608C20.0925 22.3465 20.1093 22.0053 20.1012 21.6784C20.0851 21.0215 19.9626 20.2464 19.8039 19.486C19.4841 17.9544 18.9782 16.3028 18.6856 15.3967C18.6804 15.3806 18.6859 15.3656 18.6976 15.3568C19.4169 14.8145 20.672 13.8404 21.7546 12.855C22.2933 12.3647 22.8141 11.8493 23.2079 11.3678C23.4044 11.1275 23.5881 10.873 23.7271 10.6162C23.8569 10.3764 24 10.0407 24 9.66144C24 9.11236 23.6865 8.73138 23.4227 8.51382C23.1621 8.29893 22.8462 8.1508 22.5566 8.04283C21.9685 7.82356 21.2152 7.6721 20.4672 7.56223C18.9531 7.33982 17.2151 7.25446 16.2638 7.2222C16.2478 7.22165 16.2349 7.21121 16.2306 7.19776C15.9345 6.2862 15.3694 4.62279 14.7405 3.17685C14.4285 2.45944 14.0832 1.75441 13.7294 1.21448C13.5542 0.947072 13.3505 0.678927 13.118 0.466782C12.9061 0.273382 12.5327 0 12.0312 0Z" fill="#FF9500"/>
</svg>
